<svg xmlns="http://www.w3.org/2000/svg" xmlns:xlink="http://www.w3.org/1999/xlink" id="Layer_1" x="0px" y="0px" viewBox="0 0 324.7 115" style="enable-background:new 0 0 324.7 115;" xml:space="preserve"><style type="text/css">	.st0{fill:#333232;}	.st1{fill:#989898;}	.st2{fill:#7C66AD;}	.st3{fill:#F15B2D;}	.st4{fill:#5D5C5C;}	.st5{fill:#CCCBCA;}	.st6{fill:#4B9094;}	.st7{fill:#4A4A4A;}	.st8{fill:#FFFAFA;}	.st9{opacity:0.5;fill:#FFFAFA;}	.st10{opacity:0.8;fill:#FFFAFA;}	.st11{opacity:0.25;fill:#FFFAFA;}	.st12{fill:#FFFFFF;}	.st13{opacity:0.12;clip-path:url(#SVGID_00000182497782093548729910000008333245878806472324_);}	.st14{opacity:0.12;clip-path:url(#SVGID_00000152263393814933471030000012775047573698279353_);}	.st15{opacity:0.12;clip-path:url(#SVGID_00000165195309287744081070000000318924997975741856_);}	.st16{opacity:0.12;clip-path:url(#SVGID_00000112614445036236525300000006684567895958929046_);}</style><g>	<g>		<g>			<path class="st0" d="M7.3,90.8c-0.2-1.4-1.2-2.6-2.5-2.9l-0.1,0c-2.3-0.6-4.6,1.3-4.3,3.7c0.6,4.3,1.9,10.2,3.3,14.7    c0.5,1.6,2.1,2.6,3.8,2.4c0.1,0,0.2,0,0.3,0c2.2-0.3,3.5-2.6,2.7-4.7C9,99.8,7.9,95.4,7.3,90.8z"></path>			<path class="st1" d="M74.2,62.4c-0.9-0.1-1.8-0.2-2.7-0.2c-4.2,0-8.3,1.4-11.7,4c-4.1,3.2-6.8,7.8-7.5,12.9    c-1.5,10.7,6,20.6,16.6,22.1c10.6,1.5,20.4-6.1,21.9-16.8c0.7-5.2-0.6-10.3-3.8-14.5C83.9,65.8,79.3,63.1,74.2,62.4z M83.7,85.6    c-1.7,5.5-6.8,9.1-12.2,9.1c-1.2,0-2.5-0.2-3.8-0.6c-3.3-1-5.9-3.2-7.5-6.3c-1.6-3-1.9-6.5-0.9-9.8c2.1-6.8,9.2-10.6,16-8.5    C82,71.6,85.8,78.8,83.7,85.6z"></path>			<path class="st0" d="M28.5,90.4c-0.3-1.8-2-3-3.8-2.8l-0.1,0c-2,0.2-3.3,2.1-3,4.1c1.5,7.5,4.5,14.4,8.9,20.3    c1,1.4,2.8,1.9,4.3,1.2c0.1,0,0.1-0.1,0.2-0.1c1.8-1,2.3-3.5,1.1-5.2C32.3,102.7,29.7,96.7,28.5,90.4z"></path>			<path class="st0" d="M17.9,90.8c-0.3-1.9-2.1-3.1-3.9-2.8l-0.1,0c-1.9,0.3-3.1,2.1-2.8,4c1,5.8,4.4,14.9,7.3,20.9    c0.7,1.4,2.2,2.2,3.8,2c0,0,0.1,0,0.1,0c2.4-0.4,3.7-3.2,2.5-5.3C21.3,103.8,19,97.5,17.9,90.8z"></path>			<path class="st0" d="M83.5,7.1c8.7,1.7,11.2,2.3,19.5,6.2c1.8,0.8,3.9,0.4,4.8-1.4l0-0.1c0.9-1.6,0.3-3.8-1.3-4.6    c-9.1-4.4-12.8-5.3-22.1-7c-1.8-0.3-3.5,1-3.8,2.8c0,0,0,0.1,0,0.1C80.3,5,81.6,6.7,83.5,7.1z"></path>			<path class="st0" d="M34,78.7c0.1,0,0.2,0.1,0.3,0.1c0,0,0,0,0,0c1.9,0.6,3.9-0.8,4.3-2.8c0.3-1.6,0.7-3.2,1.2-4.8    c0.6-2-0.5-4.1-2.5-4.6l-0.1,0c-1.8-0.4-3.6,0.6-4.1,2.4c-0.5,1.9-0.9,4.1-1.2,5.9C31.6,76.5,32.5,78.1,34,78.7z"></path>			<path class="st0" d="M38.8,88.6c-0.3-1.7-1.8-2.8-3.5-2.8c-2.1,0.1-3.6,2-3.2,4.1c1.1,5.5,3.3,10.7,6.6,15.3    c1.1,1.5,3.1,1.9,4.7,0.9c0,0,0,0,0.1,0c1.6-1.1,2-3.2,0.9-4.8C41.6,97.4,39.7,93.1,38.8,88.6z"></path>			<path class="st0" d="M137.4,52.5c-1.5-3.5-4-7.4-4.5-8.3c0,0,0-0.1-0.1-0.1c0,0,0-0.1-0.1-0.1v0c-1.8-3-6-8.1-8.7-11.2    c-1.2-1.4-3.3-1.5-4.7-0.2c-0.1,0.1-0.1,0.1-0.2,0.2c-1.3,1.2-1.4,3.3-0.2,4.6c4.7,5.2,8.9,11.4,11.8,18c0.9,2.1,3.4,2.8,5.3,1.6    C137.6,56,138.2,54.1,137.4,52.5z"></path>			<path class="st2" d="M77.3,16.7c8.9,0.8,17.4,3.4,24.9,7.5c1.7,0.9,3.9,0.2,4.8-1.6l0-0.1c0.8-1.7,0.1-3.7-1.5-4.6    c-8.5-4.6-17.8-7.4-27.5-8.3c-1.8-0.2-3.4,1.2-3.6,3c0,0,0,0.1,0,0.1C74,14.8,75.4,16.6,77.3,16.7z"></path>			<path class="st3" d="M109,47.3c-8.6-9.5-20.5-15.3-33.1-16.4h0c-0.4-0.1-1-0.1-1.5-0.1c-0.4,0-0.9,0-1.3,0c0,0,0,0,0,0    c-0.4,0-0.9,0-1.3,0c0,0,0,0-0.1,0h-0.1c-2,0-4.2,0.1-5.8,0.2c-0.1,0-0.1,0-0.2,0v-2.9l-10.8,6.7l10.8,5.7v-2.4    c0.3,0,0.5,0,0.8,0c4.2-0.5,8.6-0.4,13,0.3c7.6,1.3,14.9,4.7,20.7,9.8c10.6,9.2,16.2,22.3,15.5,36c-0.3,6.4-2,12.4-4.8,17.9    c-0.9,1.7-0.2,3.9,1.5,4.7c0,0,0.1,0,0.1,0c1.7,0.8,3.7,0.1,4.6-1.6c3.4-6.6,5.3-14,5.6-21.6C122.8,70.1,118,57.2,109,47.3z"></path>			<path class="st0" d="M118.2,41.9C118.2,41.9,118.2,41.9,118.2,41.9c-3.8-5.2-10.7-10-14.4-12.4v-0.1c-0.4-0.2-0.8-0.5-1.2-0.7    c-0.8-0.5-1.3-0.8-1.3-0.8c-8.4-4.8-18.1-7.6-28.5-7.9h-0.8c-1.6,0-3,1.2-3.4,2.8l0,0.1C68.3,25,69.9,27,72,27c0.4,0,0.9,0,1.4,0    c17.7,0.6,33.8,9.6,43.8,25c4.1,6.3,6.8,13.5,8,20.9c1.6,10.7,0.3,21.1-3.7,30.3c-1,2.4,1,5.1,3.6,4.7h0.1c1.2-0.2,2.2-0.9,2.7-2    c0.2-0.5,0.5-1.1,0.8-1.7c0.1-0.2,0.2-0.5,0.3-0.7c8.1-19.4,1.6-38.4,1.6-38.4C128.2,56.5,123.9,48.6,118.2,41.9z"></path>			<path class="st4" d="M101.2,78.5c-1.5-14-12.8-25.5-27.3-26.7c-0.8-0.1-1.6-0.1-2.4-0.1c-9.6,0-18.6,4.6-24.5,13    c-1.5,2.2-2.7,4.6-3.6,7.1c-1.4,4.3-1.9,8.6-1.5,12.7c0,0.1,0,0.3,0,0.4c0.1,0.6,0.1,1.2,0.2,1.8c2,13,12.3,23.7,25.9,25.4    c0.8,0.1,1.6,0.2,2.4,0.2c9.6,0.4,18.8-3.8,25-11.9c1.6-2.1,2.9-4.4,3.9-6.9C101.2,88.4,101.8,83.4,101.2,78.5z M94.3,84.9    c-1.6,11.6-11.5,20-22.8,20c-1,0-2.1-0.1-3.1-0.2c-6.1-0.8-11.5-4-15.2-8.9c-2.6-3.5-4.2-7.5-4.5-11.7c-0.2-2-0.1-4,0.3-6    C51,66.6,61.2,58.6,72.5,59c1,0,2.1,0.1,3.1,0.3c6,1.1,11.3,4.5,14.8,9.6c2.1,3.1,3.4,6.5,3.9,10.1c0,0.3,0.1,0.6,0.1,1    c0,0.2,0,0.4,0,0.6C94.6,82.1,94.5,83.5,94.3,84.9z"></path>			<path class="st5" d="M74.2,72.9c-0.9-0.3-1.8-0.4-2.7-0.4c-4,0-7.6,2.6-8.8,6.6c-0.7,2.4-0.5,4.9,0.7,7.1    c1.1,2.2,3.1,3.8,5.4,4.5c4.9,1.5,10-1.2,11.5-6.1c0.7-2.4,0.5-4.9-0.6-7.1C78.5,75.3,76.6,73.7,74.2,72.9z M71.6,85.9    c-2.1,0-3.8-1.7-3.8-3.9c0-2.1,1.7-3.9,3.8-3.9c2.1,0,3.8,1.7,3.8,3.9C75.4,84.1,73.7,85.9,71.6,85.9z"></path>			<path class="st6" d="M108.2,98.7c3.2-7,4.4-14.8,3.2-23c-0.8-5.6-2.8-11-5.9-15.8c-7.3-11.3-19-18-31.9-18.7    c-0.7,0-1.4-0.1-2.1-0.1c-4.8,0-9.6,0.9-14,2.6c-0.9,0.4-1.7,1.1-2,2.1l0,0.1c-0.9,2.7,1.7,5.4,4.4,4.3c4.5-1.7,9.4-2.4,14.3-2    c18.4,1.5,32.1,17.7,30.7,36.2c-0.3,4-1.3,7.7-2.9,11.2l-2.2-1l0.6,12.4l10.5-7.2L108.2,98.7z"></path>		</g>	</g>	<g>		<g>			<path class="st7" d="M147,57.3h7.6c3.6,0,7.5,0.8,7.5,5.2c0,2.3-1.4,3.9-3.5,4.5v0.1c2.7,0.3,4.5,2.4,4.5,5c0,4.3-4,5.7-7.7,5.7    H147V57.3z M151.5,65.5h3.3c1.4,0,2.8-0.6,2.8-2.2c0-1.7-1.6-2.1-3-2.1h-3.1V65.5z M151.5,74.1h4c1.4,0,3-0.6,3-2.4    c0-1.9-2.2-2.3-3.6-2.3h-3.4V74.1z"></path>			<path class="st7" d="M173.1,57.3h3.7l8.9,20.5h-5.1l-1.8-4.4h-7.9l-1.7,4.4h-5L173.1,57.3z M174.8,63.3l-2.5,6.4h5L174.8,63.3z"></path>			<path class="st7" d="M188.5,57.3h6.1l8.7,14.3h0.1V57.3h4.5v20.5h-5.9L193,63.3H193v14.6h-4.5V57.3z"></path>			<path class="st7" d="M216.6,61.3h-5.8v-4h16.1v4h-5.8v16.5h-4.5V61.3z"></path>			<path class="st7" d="M230.1,57.3H244v4.2h-9.4v3.8h8.8v4.2h-8.8v4.2h9.9v4.2h-14.4V57.3z"></path>			<path class="st7" d="M255.5,57.3h3.7l8.9,20.5h-5.1l-1.8-4.4h-7.9l-1.7,4.4h-5L255.5,57.3z M257.3,63.3l-2.5,6.4h5L257.3,63.3z"></path>			<path class="st7" d="M273.3,69.1l-7.7-11.8h5.6l4.3,7.7l4.6-7.7h5.3l-7.7,11.8v8.8h-4.5V69.1z"></path>			<path class="st7" d="M147,87.5h6.8l4.7,13.4h0.1l4.7-13.4h6.8V108h-4.5V92.3h-0.1l-5.4,15.8h-3.4l-5.2-15.8h-0.1V108H147V87.5z"></path>			<path class="st7" d="M175.1,87.5h13.9v4.2h-9.4v3.8h8.8v4.2h-8.8v4.2h9.9v4.2h-14.4V87.5z"></path>			<path class="st7" d="M200.5,87.5h3.7l8.9,20.5H208l-1.8-4.4h-7.9l-1.7,4.4h-5L200.5,87.5z M202.2,93.5l-2.5,6.4h5L202.2,93.5z"></path>			<path class="st7" d="M215.9,87.5h6.1l8.7,14.3h0.1V87.5h4.5V108h-5.9l-8.9-14.6h-0.1V108h-4.5V87.5z"></path>			<path class="st7" d="M253.4,92.8c-0.9-1.1-2.2-1.7-3.9-1.7c-3.4,0-5.9,2.8-5.9,6.6c0,3.8,2.5,6.6,5.8,6.6c1.8,0,3.3-0.8,4.2-2.2    l3.7,2.8c-1.7,2.4-4.6,3.6-7.4,3.6c-6.4,0-11-4.2-11-10.8c0-6.6,4.6-10.8,11-10.8c2.3,0,5.2,0.8,6.9,3L253.4,92.8z"></path>			<path class="st7" d="M260.6,87.5h4.5v7.7h8.7v-7.7h4.5V108h-4.5v-8.9H265v8.9h-4.5V87.5z"></path>			<path class="st7" d="M283.3,87.5h13.9v4.2h-9.4v3.8h8.8v4.2h-8.8v4.2h9.9v4.2h-14.4V87.5z"></path>			<path class="st7" d="M307,99.3l-7.7-11.8h5.6l4.3,7.7l4.6-7.7h5.3l-7.7,11.8v8.8H307V99.3z"></path>		</g>		<g>			<path class="st6" d="M147.4,32.4h2.9v13.3h-2.9V32.4z"></path>			<path class="st6" d="M163.8,32.4h3.9l5.6,9.2h0v-9.2h2.9v13.3h-3.8l-5.8-9.5h0v9.5h-2.9V32.4z"></path>			<path class="st6" d="M188.4,32.4h3.3l3.3,8.7h0l3.3-8.7h3.1L196,45.7h-2.3L188.4,32.4z"></path>			<path class="st6" d="M213.8,32.4h9v2.7h-6.1v2.5h5.7v2.7h-5.7V43h6.4v2.7h-9.3V32.4z"></path>			<path class="st6" d="M242.7,35.7c-0.5-0.6-1.4-0.9-2.1-0.9c-0.8,0-2,0.4-2,1.4c0,2.4,6.1,0.9,6.1,5.5c0,3-2.4,4.4-5.1,4.4    c-1.7,0-3.2-0.5-4.4-1.7l2.1-2.3c0.6,0.8,1.6,1.3,2.5,1.3c1,0,2-0.4,2-1.4c0-2.4-6.2-1.1-6.2-5.6c0-2.8,2.4-4.3,5-4.3    c1.5,0,2.9,0.4,4,1.4L242.7,35.7z"></path>			<path class="st6" d="M260.3,35h-3.8v-2.6h10.4V35h-3.8v10.7h-2.9V35z"></path>			<path class="st6" d="M295.5,32.4h2.9v13.3h-2.9V32.4z"></path>			<path class="st6" d="M311.9,32.4h3.9l5.6,9.2h0v-9.2h2.9v13.3h-3.8l-5.8-9.5h0v9.5h-2.9V32.4z"></path>		</g>		<rect x="286.7" y="74.1" class="st3" width="37.6" height="3.8"></rect>	</g>	<rect x="319.6" y="103.2" class="st2" width="4.8" height="4.8"></rect></g></svg>